ModelForces
version=1
nRows=4
nColumns=155
inDegrees=no

This file contains the forces exerted on a model during a simulation.

A force is a generalized force, meaning that it can be either a force (N) or a torque (Nm).

Units are S.I. units (second, meters, Newtons, ...)
Angles are in degrees.

endheader
time	glut_med1_r	glut_med2_r	glut_med3_r	glut_min1_r	glut_min2_r	glut_min3_r	semimem_r	semiten_r	bifemlh_r	bifemsh_r	sar_r	add_long_r	add_brev_r	add_mag1_r	add_mag2_r	add_mag3_r	tfl_r	pect_r	grac_r	glut_max1_r	glut_max2_r	glut_max3_r	iliacus_r	psoas_r	quad_fem_r	gem_r	peri_r	rect_fem_r	vas_med_r	vas_int_r	vas_lat_r	med_gas_r	lat_gas_r	soleus_r	tib_post_r	flex_dig_r	flex_hal_r	tib_ant_r	per_brev_r	per_long_r	per_tert_r	ext_dig_r	ext_hal_r	glut_med1_l	glut_med2_l	glut_med3_l	glut_min1_l	glut_min2_l	glut_min3_l	semimem_l	semiten_l	bifemlh_l	bifemsh_l	sar_l	add_long_l	add_brev_l	add_mag1_l	add_mag2_l	add_mag3_l	tfl_l	pect_l	grac_l	glut_max1_l	glut_max2_l	glut_max3_l	iliacus_l	psoas_l	quad_fem_l	gem_l	peri_l	rect_fem_l	vas_med_l	vas_int_l	vas_lat_l	med_gas_l	lat_gas_l	soleus_l	tib_post_l	flex_dig_l	flex_hal_l	tib_ant_l	per_brev_l	per_long_l	per_tert_l	ext_dig_l	ext_hal_l	ercspn_r	ercspn_l	intobl_r	intobl_l	extobl_r	extobl_l	femur_lat_meniscii_r.femur_lat_r.force.X	femur_lat_meniscii_r.femur_lat_r.force.Y	femur_lat_meniscii_r.femur_lat_r.force.Z	femur_lat_meniscii_r.femur_lat_r.torque.X	femur_lat_meniscii_r.femur_lat_r.torque.Y	femur_lat_meniscii_r.femur_lat_r.torque.Z	femur_lat_meniscii_r.meniscus_lat_r.force.X	femur_lat_meniscii_r.meniscus_lat_r.force.Y	femur_lat_meniscii_r.meniscus_lat_r.force.Z	femur_lat_meniscii_r.meniscus_lat_r.torque.X	femur_lat_meniscii_r.meniscus_lat_r.torque.Y	femur_lat_meniscii_r.meniscus_lat_r.torque.Z	femur_med_meniscii_r.femur_med_r.force.X	femur_med_meniscii_r.femur_med_r.force.Y	femur_med_meniscii_r.femur_med_r.force.Z	femur_med_meniscii_r.femur_med_r.torque.X	femur_med_meniscii_r.femur_med_r.torque.Y	femur_med_meniscii_r.femur_med_r.torque.Z	femur_med_meniscii_r.meniscus_med_r.force.X	femur_med_meniscii_r.meniscus_med_r.force.Y	femur_med_meniscii_r.meniscus_med_r.force.Z	femur_med_meniscii_r.meniscus_med_r.torque.X	femur_med_meniscii_r.meniscus_med_r.torque.Y	femur_med_meniscii_r.meniscus_med_r.torque.Z	femur_med_tibia_r.tibia_upper_r.force.X	femur_med_tibia_r.tibia_upper_r.force.Y	femur_med_tibia_r.tibia_upper_r.force.Z	femur_med_tibia_r.tibia_upper_r.torque.X	femur_med_tibia_r.tibia_upper_r.torque.Y	femur_med_tibia_r.tibia_upper_r.torque.Z	femur_med_tibia_r.femur_med_r.force.X	femur_med_tibia_r.femur_med_r.force.Y	femur_med_tibia_r.femur_med_r.force.Z	femur_med_tibia_r.femur_med_r.torque.X	femur_med_tibia_r.femur_med_r.torque.Y	femur_med_tibia_r.femur_med_r.torque.Z	femur_lat_tibia_r.tibia_upper_r.force.X	femur_lat_tibia_r.tibia_upper_r.force.Y	femur_lat_tibia_r.tibia_upper_r.force.Z	femur_lat_tibia_r.tibia_upper_r.torque.X	femur_lat_tibia_r.tibia_upper_r.torque.Y	femur_lat_tibia_r.tibia_upper_r.torque.Z	femur_lat_tibia_r.femur_lat_r.force.X	femur_lat_tibia_r.femur_lat_r.force.Y	femur_lat_tibia_r.femur_lat_r.force.Z	femur_lat_tibia_r.femur_lat_r.torque.X	femur_lat_tibia_r.femur_lat_r.torque.Y	femur_lat_tibia_r.femur_lat_r.torque.Z	aACL_R	pACL_R	aPCL_R	pPCL_R	aMCL_R	mMCL_R	pMCL_R	aLCL_R	mLCL_R	pLCL_R	aPCL_L	pPCL_L	aMCL_L	aLCL_L
      0.17515103	     10.94179697	      7.99585999	      8.59549965	      3.69831117	      4.30945096	      4.63114347	      0.00000000	    182.05531706	    138.53917500	    300.78328108	    135.30952377	      7.95397343	      5.74227155	      4.05168514	      3.48396261	      5.85288017	      5.11128450	      3.12076343	    105.90964514	      5.16198157	      7.85191419	      5.89659695	     26.90317488	     17.79490290	      5.08101697	      3.54983869	      6.11010440	     61.15136362	     30.42980107	     32.40545633	     43.58531009	      0.00000000	      0.00000000	      0.00000000	      0.00000000	      0.00000000	      0.00000000	     36.81691465	      4.43740171	      5.51085709	     24.69166825	     44.17546514	     11.87889049	     10.94179697	      7.99585999	      8.59549965	      3.69831117	      4.30945096	      4.63114347	      3.48088847	      5.90900107	     11.66332551	     10.11263121	      2.11057572	      7.95397343	      5.74227155	      4.05168514	      3.48396261	      5.85288017	      5.25144611	      3.12076343	      2.17722265	      5.16198157	      7.85191419	      5.89659695	     26.90317488	     17.79490290	      5.08101697	      3.54983869	      6.11010440	     16.19298868	      0.00000000	      0.00000000	      0.00000000	     20.85113208	      9.81675094	     48.72846545	     49.92403789	      5.19042150	      4.63163177	     12.63070511	      6.73821900	     17.53113227	      2.75174351	      8.45373991	      2.66756881	     34.80783415	     34.80783415	     12.89022157	     12.89022157	     30.30914084	     30.30914084	     88.80316164	    237.31204032	     21.70060206	    -14.35453650	      2.12944146	     34.03353546	    -88.80316164	   -237.31204032	    -21.70060206	      6.32396193	     -2.76043614	      5.72955701	     92.71709672	     44.51741313	     -3.75466745	      2.46239779	     -2.08186140	     37.10142304	    -92.71709672	    -44.51741313	      3.75466745	     -0.93157461	      2.01250028	     -0.12192876	   -508.89550130	   -674.74973896	    165.84308223	    -14.71126616	     13.45054659	      8.59765817	    508.89550130	    674.74973896	   -165.84308223	     80.19397961	    -10.58996414	    203.97699415	      0.00000000	      0.00000000	      0.00000000	      0.00000000	      0.00000000	      0.00000000	      0.00000000	      0.00000000	      0.00000000	      0.00000000	      0.00000000	      0.00000000	      3.21777954	      0.00000000	    474.24368970	    273.02207985	      0.00000000	      0.00000000	      0.00000000	      0.00000000	      0.00000000	      0.00000000	      0.00000000	      0.00000000	      0.00000001	      0.00000000
      0.17539980	     10.93095246	      7.98824331	      8.58721260	      3.69493385	      4.30575977	      4.62642512	      0.00000000	    182.16125683	    138.48064783	    300.84741618	    135.33707021	      7.94630872	      5.73707651	      4.05040356	      3.48058258	      5.84675296	      5.10883295	      3.11789334	    105.93136096	      5.15704729	      7.84439091	      5.89085699	     26.88916589	     17.77893345	      5.07627548	      3.54753114	      6.10662566	     61.38715494	     30.42097304	     32.39489928	     43.56727208	      0.00000000	      0.00000000	      0.00000000	      0.00000000	      0.00000000	      0.00000000	     36.82948452	      4.44261646	      5.53192706	     24.72511254	     44.30378405	     11.90816168	     10.93095246	      7.98824331	      8.58721260	      3.69493385	      4.30575977	      4.62642512	      3.69868979	      5.90300423	     11.65115585	     10.10318402	      2.10865734	      7.94630872	      5.73707651	      4.05040356	      3.48058258	      5.84675296	      5.24766418	      3.11789334	      2.17520880	      5.15704729	      7.84439091	      5.89085699	     26.88916589	     17.77893345	      5.07627548	      3.54753114	      6.10662566	     16.17517531	      0.00000000	      0.00000000	      0.00000000	     20.84232413	      9.81185660	     48.68132306	     49.90087102	      5.18390958	      4.62529928	     12.61739670	      6.73070727	     17.51659812	      2.74928254	      8.44687253	      2.66576888	     34.77597568	     34.77597568	     12.87745808	     12.87745808	     30.29758933	     30.29758933	     89.25569964	    235.80237057	     21.53862034	    -14.25330449	      2.13851453	     34.22768274	    -89.25569964	   -235.80237057	    -21.53862034	      6.28330649	     -2.76780069	      5.68921545	     92.30069998	     44.03570416	     -3.68714183	      2.42712795	     -2.07652144	     36.93541821	    -92.30069998	    -44.03570416	      3.68714183	     -0.92298452	      2.00608216	     -0.12326021	   -511.59720909	   -675.31801228	    166.31453942	    -14.72102190	     13.52144978	      8.63038224	    511.59720909	    675.31801228	   -166.31453942	     80.39672028	    -10.65096452	    205.04903820	      0.00000000	      0.00000000	      0.00000000	      0.00000000	      0.00000000	      0.00000000	      0.00000000	      0.00000000	      0.00000000	      0.00000000	      0.00000000	      0.00000000	      3.25480016	      0.00000000	    477.33876859	    274.65065935	      0.00000000	      0.00000000	      0.00000000	      0.00000000	      0.00000000	      0.00000000	      0.00000000	      0.00000000	      0.00000001	      0.00000000
      0.17563490	     10.92073082	      7.98106827	      8.57940612	      3.69175226	      4.30228260	      4.62198030	      0.00000000	    182.25993081	    138.43080963	    300.90835666	    135.36242996	      7.93908848	      5.73218251	      4.04910068	      3.47739858	      5.84098106	      5.10651313	      3.11518960	    105.95124094	      5.15239917	      7.83730395	      5.88544996	     26.87596973	     17.76389076	      5.07180885	      3.54535756	      6.10332489	     61.61112255	     30.41262139	     32.38488168	     43.55023306	      0.00000000	      0.00000000	      0.00000000	      0.00000000	      0.00000000	      0.00000000	     36.84082393	      4.44768225	      5.55199340	     24.75985492	     44.42447468	     11.93563561	     10.92073082	      7.98106827	      8.57940612	      3.69175226	      4.30228260	      4.62198030	      3.89530230	      5.89735519	     11.63968232	     10.09428451	      2.10685013	      7.93908848	      5.73218251	      4.04910068	      3.47739858	      5.84098106	      5.24410143	      3.11518960	      2.17331169	      5.15239917	      7.83730395	      5.88544996	     26.87596973	     17.76389076	      5.07180885	      3.54535756	      6.10332489	     16.15839268	      0.00000000	      0.00000000	      0.00000000	     20.83395071	      9.80721111	     48.63682732	     49.87903448	      5.17773603	      4.61928883	     12.60485492	      6.72362842	     17.50289236	      2.74696436	      8.44045241	      2.66409181	     34.74596357	     34.74596357	     12.86543484	     12.86543484	     30.28670817	     30.28670817	     88.89774080	    235.14677752	     21.43501347	    -14.19749514	      2.12629018	     34.07545989	    -88.89774080	   -235.14677752	    -21.43501347	      6.26682766	     -2.75376049	      5.69899815	     92.17837119	     43.58810371	     -3.77147755	      2.45289291	     -2.07253955	     36.88602832	    -92.17837119	    -43.58810371	      3.77147755	     -0.91644430	      2.00394188	     -0.12661880	   -514.38330596	   -675.40498446	    166.78666524	    -14.72428448	     13.59304424	      8.64120435	    514.38330596	    675.40498446	   -166.78666524	     80.59202243	    -10.71301999	    206.16282379	      0.00000000	      0.00000000	      0.00000000	      0.00000000	      0.00000000	      0.00000000	      0.00000000	      0.00000000	      0.00000000	      0.00000000	      0.00000000	      0.00000000	      3.27390475	      0.00000000	    480.22514022	    276.10109438	      0.00000000	      0.00000000	      0.00000000	      0.00000000	      0.00000000	      0.00000000	      0.00000000	      0.00000000	      0.00000001	      0.00000000
      0.17588221	     10.91000703	      7.97354500	      8.57122085	      3.68841616	      4.29863665	      4.61731973	      0.00000000	    182.36164286	    138.38394495	    300.97008162	    135.38733806	      7.93151789	      5.72705080	      4.04763830	      3.47406011	      5.83492906	      5.10399893	      3.11235458	    105.97079927	      5.14752554	      7.82987315	      5.87978062	     26.86213372	     17.74811886	      5.06712539	      3.54307865	      6.09983923	     61.84763973	     30.40339040	     32.37396224	     43.53209237	      0.00000000	      0.00000000	      0.00000000	      0.00000000	      0.00000000	      0.00000000	     36.85226248	      4.45314228	      5.57325067	     24.79846432	     44.55074959	     11.96427762	     10.91000703	      7.97354500	      8.57122085	      3.68841616	      4.29863665	      4.61731973	      4.09327163	      5.89143210	     11.62764214	     10.08495298	      2.10495515	      7.93151789	      5.72705080	      4.04763830	      3.47406011	      5.83492906	      5.24036568	      3.11235458	      2.17132247	      5.14752554	      7.82987315	      5.87978062	     26.86213372	     17.74811886	      5.06712539	      3.54307865	      6.09983923	     16.14079336	      0.00000000	      0.00000000	      0.00000000	     20.82509133	      9.80230369	     48.59008201	     49.85612473	      5.17122179	      4.61293941	     12.59169928	      6.71620325	     17.48850654	      2.74453379	      8.43377157	      2.66235246	     34.71449402	     34.71449402	     12.85282828	     12.85282828	     30.27529952	     30.27529952	     88.72635441	    234.38736889	     21.26040802	    -14.11051955	      2.11769295	     34.00034365	    -88.72635441	   -234.38736889	    -21.26040802	      6.24659532	     -2.74211543	      5.70228439	     91.51519905	     43.27736477	     -3.84084593	      2.47203475	     -2.05492399	     36.61453425	    -91.51519905	    -43.27736477	      3.84084593	     -0.90884296	      1.98872197	     -0.11456505	   -517.26177652	   -675.42953093	    167.11667414	    -14.72262393	     13.66249799	      8.65218417	    517.26177652	    675.42953093	   -167.11667414	     80.72765867	    -10.77611411	    207.31328204	      0.00000000	      0.00000000	      0.00000000	      0.00000000	      0.00000000	      0.00000000	      0.00000000	      0.00000000	      0.00000000	      0.00000000	      0.00000000	      0.00000000	      3.27318664	      0.00000000	    483.22095656	    277.54322541	      0.00000000	      0.00000000	      0.00000000	      0.00000000	      0.00000000	      0.00000000	      0.00000000	      0.00000000	      0.00000001	      0.00000000
